<?xml version="1.0" standalone="no"?><!DOCTYPE svg PUBLIC "-//W3C//DTD SVG 1.1//EN" "http://www.w3.org/Graphics/SVG/1.1/DTD/svg11.dtd"><svg height="200" node-id="1" sillyvg="true" template-height="200" template-width="200" version="1.1" viewBox="0 0 200 200" width="200" xmlns="http://www.w3.org/2000/svg" xmlns:xlink="http://www.w3.org/1999/xlink"><defs node-id="107"></defs><path d="M 66.37 132.47 L 150.82 132.47" fill="none" node-id="109" stroke="#231f20" stroke-linecap="round" stroke-width="0.57" target-height="0" target-width="84.450005" target-x="66.37" target-y="132.47"></path><path d="M 71.95 121.41 L 144.46 121.41" fill="none" node-id="111" stroke="#231f20" stroke-linecap="round" stroke-width="0.57" target-height="0" target-width="72.51001" target-x="71.95" target-y="121.41"></path><path d="M 80.39 110.10 L 135.57 110.10" fill="none" node-id="113" stroke="#231f20" stroke-linecap="round" stroke-width="0.57" target-height="0" target-width="55.180008" target-x="80.39" target-y="110.1"></path><path d="M 110.31 121.41 L 110.31 132.47" fill="none" node-id="115" stroke="#231f20" stroke-linecap="round" stroke-width="0.57" target-height="11.059998" target-width="0" target-x="110.31" target-y="121.41"></path><path d="M 137.28 121.41 L 137.28 132.47" fill="none" node-id="117" stroke="#231f20" stroke-linecap="round" stroke-width="0.57" target-height="11.059998" target-width="0" target-x="137.28" target-y="121.41"></path><path d="M 83.65 121.41 L 83.65 132.31" fill="none" node-id="119" stroke="#231f20" stroke-linecap="round" stroke-width="0.57" target-height="10.899994" target-width="0" target-x="83.65" target-y="121.41"></path><path d="M 96.88 121.41 L 96.88 110.52" fill="none" node-id="121" stroke="#231f20" stroke-linecap="round" stroke-width="0.57" target-height="10.890007" target-width="0" target-x="96.88" target-y="110.52"></path><path d="M 123.41 121.41 L 123.41 110.52" fill="none" node-id="123" stroke="#231f20" stroke-linecap="round" stroke-width="0.57" target-height="10.890007" target-width="0" target-x="123.41" target-y="110.52"></path><path d="M 66.37 110.10 L 150.82 110.10" fill="none" node-id="125" stroke="#231f20" stroke-linecap="round" stroke-width="0.57" target-height="0" target-width="84.450005" target-x="66.37" target-y="110.1"></path><path d="M 61.64 99.04 L 154.74 99.04" fill="none" node-id="127" stroke="#231f20" stroke-linecap="round" stroke-width="0.57" target-height="0" target-width="93.100006" target-x="61.64" target-y="99.04"></path><path d="M 72.94 87.73 L 143.02 87.73" fill="none" node-id="129" stroke="#231f20" stroke-linecap="round" stroke-width="0.57" target-height="0" target-width="70.08" target-x="72.94" target-y="87.73"></path><path d="M 110.31 99.04 L 110.31 110.10" fill="none" node-id="131" stroke="#231f20" stroke-linecap="round" stroke-width="0.57" target-height="11.059998" target-width="0" target-x="110.31" target-y="99.04"></path><path d="M 137.28 99.04 L 137.28 110.10" fill="none" node-id="133" stroke="#231f20" stroke-linecap="round" stroke-width="0.57" target-height="11.059998" target-width="0" target-x="137.28" target-y="99.04"></path><path d="M 83.65 99.04 L 83.65 109.94" fill="none" node-id="135" stroke="#231f20" stroke-linecap="round" stroke-width="0.57" target-height="10.900002" target-width="0" target-x="83.65" target-y="99.04"></path><path d="M 96.88 99.04 L 96.88 88.14" fill="none" node-id="137" stroke="#231f20" stroke-linecap="round" stroke-width="0.57" target-height="10.900002" target-width="0" target-x="96.88" target-y="88.14"></path><path d="M 123.41 99.04 L 123.41 88.14" fill="none" node-id="139" stroke="#231f20" stroke-linecap="round" stroke-width="0.57" target-height="10.900002" target-width="0" target-x="123.41" target-y="88.14"></path><path d="M 66.37 154.85 L 150.82 154.85" fill="none" node-id="141" stroke="#231f20" stroke-linecap="round" stroke-width="0.57" target-height="0" target-width="84.450005" target-x="66.37" target-y="154.85"></path><path d="M 71.95 143.78 L 144.46 143.78" fill="none" node-id="143" stroke="#231f20" stroke-linecap="round" stroke-width="0.57" target-height="0" target-width="72.51001" target-x="71.95" target-y="143.78"></path><path d="M 80.39 132.47 L 135.57 132.47" fill="none" node-id="145" stroke="#231f20" stroke-linecap="round" stroke-width="0.57" target-height="0" target-width="55.180008" target-x="80.39" target-y="132.47"></path><path d="M 110.31 143.78 L 110.31 154.85" fill="none" node-id="147" stroke="#231f20" stroke-linecap="round" stroke-width="0.57" target-height="11.070007" target-width="0" target-x="110.31" target-y="143.78"></path><path d="M 137.28 143.78 L 137.28 154.85" fill="none" node-id="149" stroke="#231f20" stroke-linecap="round" stroke-width="0.57" target-height="11.070007" target-width="0" target-x="137.28" target-y="143.78"></path><path d="M 83.65 143.78 L 83.65 154.68" fill="none" node-id="151" stroke="#231f20" stroke-linecap="round" stroke-width="0.57" target-height="10.899994" target-width="0" target-x="83.65" target-y="143.78"></path><path d="M 96.88 143.78 L 96.88 132.89" fill="none" node-id="153" stroke="#231f20" stroke-linecap="round" stroke-width="0.57" target-height="10.889999" target-width="0" target-x="96.88" target-y="132.89"></path><path d="M 123.41 143.78 L 123.41 132.89" fill="none" node-id="155" stroke="#231f20" stroke-linecap="round" stroke-width="0.57" target-height="10.889999" target-width="0" target-x="123.41" target-y="132.89"></path><path d="M 69.18 177.22 L 150.82 177.22" fill="none" node-id="157" stroke="#231f20" stroke-linecap="round" stroke-width="0.57" target-height="0" target-width="81.64001" target-x="69.18" target-y="177.22"></path><path d="M 71.95 166.16 L 144.46 166.16" fill="none" node-id="159" stroke="#231f20" stroke-linecap="round" stroke-width="0.57" target-height="0" target-width="72.51001" target-x="71.95" target-y="166.16"></path><path d="M 80.39 154.85 L 135.57 154.85" fill="none" node-id="161" stroke="#231f20" stroke-linecap="round" stroke-width="0.57" target-height="0" target-width="55.180008" target-x="80.39" target-y="154.85"></path><path d="M 110.31 166.16 L 110.31 177.22" fill="none" node-id="163" stroke="#231f20" stroke-linecap="round" stroke-width="0.57" target-height="11.059998" target-width="0" target-x="110.31" target-y="166.16"></path><path d="M 137.28 166.16 L 137.28 177.22" fill="none" node-id="165" stroke="#231f20" stroke-linecap="round" stroke-width="0.57" target-height="11.059998" target-width="0" target-x="137.28" target-y="166.16"></path><path d="M 83.65 166.16 L 83.65 177.05" fill="none" node-id="167" stroke="#231f20" stroke-linecap="round" stroke-width="0.57" target-height="10.889999" target-width="0" target-x="83.65" target-y="166.16"></path><path d="M 96.88 166.16 L 96.88 155.26" fill="none" node-id="169" stroke="#231f20" stroke-linecap="round" stroke-width="0.57" target-height="10.900009" target-width="0" target-x="96.88" target-y="155.26"></path><path d="M 123.41 166.16 L 123.41 155.26" fill="none" node-id="171" stroke="#231f20" stroke-linecap="round" stroke-width="0.57" target-height="10.900009" target-width="0" target-x="123.41" target-y="155.26"></path><path d="M 91.63 76.53 L 84.63 79.88 C 88.69 91.12 103.14 177.22 103.14 177.22 L 180.43 177.15 C 180.27 177.08 91.63 76.53 91.63 76.53 Z" fill="#ffca05" fill-rule="evenodd" node-id="173" stroke="none" target-height="100.69" target-width="95.799995" target-x="84.63" target-y="76.53"></path><path d="M 91.63 76.53 L 84.63 79.88 C 88.69 91.12 103.14 177.22 103.14 177.22 L 180.43 177.15 C 180.27 177.08 91.63 76.53 91.63 76.53 Z" fill="none" node-id="175" stroke="#231f20" stroke-linecap="round" stroke-width="0.57" target-height="100.69" target-width="95.799995" target-x="84.63" target-y="76.53"></path><path d="M 91.67 76.34 C 92.42 77.34 91.54 79.14 89.67 80.26 C 87.80 81.38 85.67 81.45 84.97 80.40 C 84.85 80.23 83.50 77.93 83.46 77.73 C 83.26 76.73 85.46 77.42 86.95 76.48 C 88.44 75.54 89.32 73.48 90.29 73.94 C 90.80 74.71 91.26 75.51 91.67 76.34 Z" fill="#0094d9" fill-rule="evenodd" node-id="177" stroke="none" target-height="7.9699936" target-width="9.159996" target-x="83.26" target-y="73.48"></path><path d="M 91.67 76.34 C 92.42 77.34 91.54 79.14 89.67 80.26 C 87.80 81.38 85.67 81.45 84.97 80.40 C 84.85 80.23 83.50 77.93 83.46 77.73 C 83.26 76.73 85.46 77.42 86.95 76.48 C 88.44 75.54 89.32 73.48 90.29 73.94 C 90.80 74.71 91.26 75.51 91.67 76.34 Z" fill="none" node-id="179" stroke="#231f20" stroke-linecap="round" stroke-width="0.57" target-height="7.9699936" target-width="9.159996" target-x="83.26" target-y="73.48"></path><path d="M 90.26 73.90 C 91.00 75.00 90.00 76.70 88.16 77.76 C 86.32 78.82 84.16 78.83 83.46 77.76 C 82.76 76.69 83.68 74.97 85.56 73.90 C 87.44 72.83 89.54 72.84 90.26 73.90 Z" fill="#0094d9" fill-rule="evenodd" node-id="181" stroke="none" target-height="6" target-width="8.239998" target-x="82.76" target-y="72.83"></path><path d="M 90.26 73.90 C 91.00 75.00 90.00 76.70 88.16 77.76 C 86.32 78.82 84.16 78.83 83.46 77.76 C 82.76 76.69 83.68 74.97 85.56 73.90 C 87.44 72.83 89.54 72.84 90.26 73.90 Z" fill="none" node-id="183" stroke="#231f20" stroke-linecap="round" stroke-width="0.57" target-height="6" target-width="8.239998" target-x="82.76" target-y="72.83"></path><path d="M 85.45 76.49 C 85.96 76.86 88.96 75.76 87.82 74.17 L 80.92 62.11 C 80.42 61.49 79.57 61.30 78.85 61.64 C 78.14 61.99 77.75 62.78 77.92 63.55 L 77.92 63.61 Z" fill="#0094d9" fill-rule="evenodd" node-id="185" stroke="none" target-height="15.558773" target-width="11.208801" target-x="77.7512" target-y="61.301228"></path><path d="M 85.45 76.49 C 85.96 76.86 88.96 75.76 87.82 74.17 L 80.92 62.11 C 80.42 61.49 79.57 61.30 78.85 61.64 C 78.14 61.99 77.75 62.78 77.92 63.55 L 77.92 63.61 Z" fill="none" node-id="187" stroke="#231f20" stroke-linecap="round" stroke-width="0.57" target-height="15.558773" target-width="11.208801" target-x="77.7512" target-y="61.301228"></path><path d="M 80.42 61.74 C 80.71 62.14 80.42 62.81 79.67 63.25 C 78.92 63.69 78.16 63.72 77.87 63.32 C 77.58 62.92 77.87 62.25 78.61 61.81 C 79.35 61.37 80.13 61.34 80.42 61.74 Z" fill="none" node-id="189" stroke="#231f20" stroke-linecap="round" stroke-width="0.57" target-height="2.380001" target-width="3.1299973" target-x="77.58" target-y="61.34"></path><path d="M 93.68 74.21 L 95.54 73.23" fill="none" node-id="191" stroke="#231f20" stroke-linecap="round" stroke-width="0.57" target-height="0.9799957" target-width="1.8600006" target-x="93.68" target-y="73.23"></path><path d="M 92.31 71.51 L 94.64 69.10" fill="none" node-id="193" stroke="#231f20" stroke-linecap="round" stroke-width="0.57" target-height="2.4100037" target-width="2.3300018" target-x="92.31" target-y="69.1"></path><path d="M 89.93 69.87 L 90.44 67.52" fill="none" node-id="195" stroke="#231f20" stroke-linecap="round" stroke-width="0.57" target-height="2.350006" target-width="0.51000214" target-x="89.93" target-y="67.52"></path><path d="M 130.86 177.17 L 122.36 177.17 C 122.02 176.65 121.90 176.01 122.02 175.40 C 122.21 174.42 123.03 173.68 124.02 173.60 C 125.20 173.49 126.37 174.19 127.02 174.21 C 128.46 174.27 130.88 173.86 131.55 174.49 C 132.52 175.32 132.49 177.17 130.86 177.17 Z" fill="#cbcbcb" fill-rule="evenodd" node-id="197" stroke="none" target-height="3.6799927" target-width="10.623093" target-x="121.89691" target-y="173.49"></path><path d="M 130.86 177.17 L 122.36 177.17 C 122.02 176.65 121.90 176.01 122.02 175.40 C 122.21 174.42 123.03 173.68 124.02 173.60 C 125.20 173.49 126.37 174.19 127.02 174.21 C 128.46 174.27 130.88 173.86 131.55 174.49 C 132.52 175.32 132.49 177.17 130.86 177.17 Z" fill="none" node-id="199" stroke="#231f20" stroke-linecap="round" stroke-width="0.57" target-height="3.6799927" target-width="10.623093" target-x="121.89691" target-y="173.49"></path><path d="M 120.09 161.67 C 120.71 161.96 121.22 165.03 120.93 165.35 L 120.93 165.49 C 120.68 167.35 119.14 167.55 118.70 166.49 C 117.73 163.81 121.20 162.49 120.09 161.67 Z" fill="#cbcbcb" fill-rule="evenodd" node-id="201" stroke="none" target-height="5.880005" target-width="3.4899979" target-x="117.73" target-y="161.67"></path><path d="M 120.09 161.67 C 120.71 161.96 121.22 165.03 120.93 165.35 L 120.93 165.49 C 120.68 167.35 119.14 167.55 118.70 166.49 C 117.73 163.81 121.20 162.49 120.09 161.67 Z" fill="none" node-id="203" stroke="#231f20" stroke-linecap="round" stroke-width="0.57" target-height="5.880005" target-width="3.4899979" target-x="117.73" target-y="161.67"></path><path d="M 132.52 159.79 C 136.61 160.38 142.74 162.21 143.59 169.29 C 143.94 172.11 143.32 175.85 139.78 177.22 C 139.72 177.22 131.39 177.22 131.02 177.22 C 127.76 177.22 124.72 174.81 122.69 171.92 C 120.00 168.10 120.08 163.92 120.08 160.62 C 120.08 157.92 115.51 153.85 115.77 151.52 C 115.81 150.57 116.53 149.80 117.47 149.69 C 118.81 149.43 122.70 150.28 124.29 150.45 C 124.97 150.53 125.43 150.62 125.44 150.59 C 126.51 146.50 133.22 148.30 130.08 152.96 C 128.00 156.00 127.32 159.00 132.52 159.79 Z" fill="#cbcbcb" fill-rule="evenodd" node-id="205" stroke="none" target-height="30.720001" target-width="28.43" target-x="115.51" target-y="146.5"></path><path d="M 132.52 159.79 C 136.61 160.38 142.74 162.21 143.59 169.29 C 143.94 172.11 143.32 175.85 139.78 177.22 C 139.72 177.22 131.39 177.22 131.02 177.22 C 127.76 177.22 124.72 174.81 122.69 171.92 C 120.00 168.10 120.08 163.92 120.08 160.62 C 120.08 157.92 115.51 153.85 115.77 151.52 C 115.81 150.57 116.53 149.80 117.47 149.69 C 118.81 149.43 122.70 150.28 124.29 150.45 C 124.97 150.53 125.43 150.62 125.44 150.59 C 126.51 146.50 133.22 148.30 130.08 152.96 C 128.00 156.00 127.32 159.00 132.52 159.79 Z" fill="none" node-id="207" stroke="#231f20" stroke-linecap="round" stroke-width="0.57" target-height="30.720001" target-width="28.43" target-x="115.51" target-y="146.5"></path><path d="M 119.80 155.05 L 118.19 154.18 L 117.32 155.01 C 117.30 155.61 117.41 156.21 117.64 156.77 L 119.34 156.77 C 119.57 156.22 119.72 155.64 119.80 155.05 Z" fill="#ffffff" fill-rule="evenodd" node-id="209" stroke="none" target-height="2.5900116" target-width="2.4975967" target-x="117.30241" target-y="154.18"></path><path d="M 119.80 155.05 L 118.19 154.18 L 117.32 155.01 C 117.30 155.61 117.41 156.21 117.64 156.77 L 119.34 156.77 C 119.57 156.22 119.72 155.64 119.80 155.05 Z" fill="none" node-id="211" stroke="#231f20" stroke-linecap="round" stroke-width="0.57" target-height="2.5900116" target-width="2.4975967" target-x="117.30241" target-y="154.18"></path><path d="M 116.74 150.15 C 116.48 149.39 120.34 149.28 120.01 150.15 C 119.44 151.75 117.78 153.23 116.74 150.15 Z" fill="#ff98cb" fill-rule="evenodd" node-id="213" stroke="none" target-height="3.949997" target-width="3.859993" target-x="116.48" target-y="149.28"></path><path d="M 116.74 150.15 C 116.48 149.39 120.34 149.28 120.01 150.15 C 119.44 151.75 117.78 153.23 116.74 150.15 Z" fill="none" node-id="215" stroke="#231f20" stroke-linecap="round" stroke-width="0.57" target-height="3.949997" target-width="3.859993" target-x="116.48" target-y="149.28"></path><path d="M 124.28 151.57 C 124.61 151.57 124.88 151.84 124.88 152.17 C 124.88 152.50 124.61 152.77 124.28 152.77 C 123.95 152.77 123.68 152.50 123.68 152.17 C 123.68 151.84 123.95 151.57 124.28 151.57" fill="#000000" fill-rule="evenodd" node-id="217" stroke="none" target-height="1.199997" target-width="1.199997" target-x="123.68" target-y="151.57"></path><path d="M 131.23 177.17 C 130.89 176.65 130.77 176.01 130.89 175.40 C 131.08 174.42 131.90 173.68 132.89 173.60 C 134.07 173.49 135.24 174.19 135.89 174.21" fill="none" node-id="219" stroke="#231f20" stroke-linecap="round" stroke-width="0.57" target-height="3.6799927" target-width="5.1230927" target-x="130.7669" target-y="173.49"></path><path d="M 143.70 170.79 C 145.95 169.68 147.39 166.56 145.60 162.38 C 144.60 160.02 140.85 152.60 144.80 149.30" fill="none" node-id="221" stroke="#231f20" stroke-linecap="round" stroke-width="0.57" target-height="21.48999" target-width="6.5399933" target-x="140.85" target-y="149.3"></path><path d="M 128.52 150.00 C 128.00 149.96 127.50 150.19 127.20 150.61 C 126.90 151.31 126.81 152.07 126.95 152.82" fill="none" node-id="223" stroke="#231f20" stroke-linecap="round" stroke-width="0.57" target-height="2.8617554" target-width="1.7052994" target-x="126.814705" target-y="149.95825"></path><path d="M 124.41 162.61 C 121.97 163.29 122.06 164.45 122.41 166.61 C 122.79 167.54 124.26 167.38 124.27 165.87 C 124.32 165.57 124.46 165.28 124.68 165.07" fill="none" node-id="225" stroke="#231f20" stroke-linecap="round" stroke-width="0.57" target-height="4.9299927" target-width="2.709999" target-x="121.97" target-y="162.61"></path><path d="M 121.72 154.89 L 121.65 154.89 C 120.38 155.80 119.14 154.89 118.24 153.89 C 118.04 154.25 117.74 154.54 117.37 154.73" fill="none" node-id="227" stroke="#231f20" stroke-linecap="round" stroke-width="0.57" target-height="1.9100037" target-width="4.3499985" target-x="117.37" target-y="153.89"></path><path d="M 121.37 150.00 C 121.37 149.60 121.47 149.21 121.68 148.87 C 122.55 147.49 124.68 148.06 125.20 149.48 C 125.32 149.87 125.37 150.27 125.36 150.67 Z" fill="#cbcbcb" fill-rule="evenodd" node-id="229" stroke="none" target-height="3.1799927" target-width="4.0038605" target-x="121.36672" target-y="147.49"></path><path d="M 121.37 150.00 C 121.37 149.60 121.47 149.21 121.68 148.87 C 122.55 147.49 124.68 148.06 125.20 149.48 C 125.32 149.87 125.37 150.27 125.36 150.67 Z" fill="none" node-id="231" stroke="#231f20" stroke-linecap="round" stroke-width="0.57" target-height="3.1799927" target-width="4.0038605" target-x="121.36672" target-y="147.49"></path><path d="M 45.65 83.70 L 43.65 95.43 C 41.38 99.07 35.15 97.35 34.65 91.83 C 34.49 90.02 33.51 83.54 32.71 78.25 C 32.50 76.94 30.88 68.25 33.16 67.58 C 34.93 67.05 34.23 70.24 34.16 71.35 C 34.05 72.96 34.16 66.57 36.06 66.45 C 37.61 66.36 37.26 68.71 36.97 70.05 C 36.86 70.57 36.80 71.05 36.80 70.98 C 36.80 70.63 37.12 69.61 37.35 68.33 C 37.95 65.06 40.44 66.21 40.12 67.56 C 39.64 69.56 39.20 72.30 39.54 72.48 C 40.11 72.78 40.17 72.57 40.87 70.99 C 41.57 69.41 43.18 69.83 42.78 71.99 C 42.46 73.73 41.08 75.89 41.20 77.15 L 42.25 80.72 Z" fill="#f9d1e3" fill-rule="evenodd" node-id="233" stroke="none" target-height="34.010002" target-width="14.770002" target-x="30.88" target-y="65.06"></path><path d="M 45.65 83.70 L 43.65 95.43 C 41.38 99.07 35.15 97.35 34.65 91.83 C 34.49 90.02 33.51 83.54 32.71 78.25 C 32.50 76.94 30.88 68.25 33.16 67.58 C 34.93 67.05 34.23 70.24 34.16 71.35 C 34.05 72.96 34.16 66.57 36.06 66.45 C 37.61 66.36 37.26 68.71 36.97 70.05 C 36.86 70.57 36.80 71.05 36.80 70.98 C 36.80 70.63 37.12 69.61 37.35 68.33 C 37.95 65.06 40.44 66.21 40.12 67.56 C 39.64 69.56 39.20 72.30 39.54 72.48 C 40.11 72.78 40.17 72.57 40.87 70.99 C 41.57 69.41 43.18 69.83 42.78 71.99 C 42.46 73.73 41.08 75.89 41.20 77.15 L 42.25 80.72 Z" fill="none" node-id="235" stroke="#231f20" stroke-linecap="round" stroke-width="0.57" target-height="34.010002" target-width="14.770002" target-x="30.88" target-y="65.06"></path><path d="M 54.48 73.00 C 54.77 71.23 53.95 69.78 52.48 69.49 C 52.12 69.37 51.72 69.49 51.48 69.79 L 50.62 76.00 C 50.46 77.50 53.62 77.79 54.14 76.56 Z" fill="#f9d1e3" fill-rule="evenodd" node-id="237" stroke="none" target-height="8.420174" target-width="4.3100014" target-x="50.46" target-y="69.36983"></path><path d="M 54.48 73.00 C 54.77 71.23 53.95 69.78 52.48 69.49 C 52.12 69.37 51.72 69.49 51.48 69.79 L 50.62 76.00 C 50.46 77.50 53.62 77.79 54.14 76.56 Z" fill="none" node-id="239" stroke="#231f20" stroke-linecap="round" stroke-width="0.57" target-height="8.420174" target-width="4.3100014" target-x="50.46" target-y="69.36983"></path><path d="M 63.10 103.53 C 63.57 104.59 76.71 156.35 77.90 159.80 L 49.58 159.80 L 27.90 153.52 C 28.05 153.00 32.90 141.05 36.26 134.33 C 36.78 133.06 36.89 131.66 36.55 130.33 C 35.00 120.05 35.17 111.00 41.92 103.53 Z" fill="#231f20" fill-rule="evenodd" node-id="241" stroke="none" target-height="56.270004" target-width="50" target-x="27.9" target-y="103.53"></path><path d="M 50.21 118.23 L 55.08 120.92 L 60.08 118.79 C 60.02 118.38 60.08 110.00 60.25 108.61 L 50.43 108.61 Z" fill="none" node-id="243" stroke="#ffffff" stroke-linecap="round" stroke-width="0.57" target-height="12.309998" target-width="10.040001" target-x="50.21" target-y="108.61"></path><path d="M 35.74 120.24 L 36.99 121.24 L 41.99 119.11 C 42.05 118.70 44.34 110.32 44.92 108.93 L 38.32 108.93" fill="none" node-id="245" stroke="#ffffff" stroke-linecap="round" stroke-width="0.57" target-height="12.309998" target-width="9.1799965" target-x="35.74" target-y="108.93"></path><path d="M 58.69 65.27 C 58.20 64.15 57.27 63.29 56.12 62.89 C 53.49 62.42 50.99 63.21 50.38 66.41 C 50.18 68.82 51.40 71.13 53.51 72.32 C 56.70 73.84 59.51 71.64 59.51 68.51 C 59.51 68.26 59.76 67.89 59.74 67.63 C 59.72 67.37 59.38 67.25 59.37 67.17 C 59.28 66.50 59.04 65.85 58.69 65.27 Z" fill="#f9d1e3" fill-rule="evenodd" node-id="247" stroke="none" target-height="11.419998" target-width="9.577106" target-x="50.18289" target-y="62.42"></path><path d="M 58.69 65.27 C 58.20 64.15 57.27 63.29 56.12 62.89 C 53.49 62.42 50.99 63.21 50.38 66.41 C 50.18 68.82 51.40 71.13 53.51 72.32 C 56.70 73.84 59.51 71.64 59.51 68.51 C 59.51 68.26 59.76 67.89 59.74 67.63 C 59.72 67.37 59.38 67.25 59.37 67.17 C 59.28 66.50 59.04 65.85 58.69 65.27 Z" fill="none" node-id="249" stroke="#231f20" stroke-linecap="round" stroke-width="0.57" target-height="11.419998" target-width="9.577106" target-x="50.18289" target-y="62.42"></path><path d="M 45.45 71.57 C 46.45 65.26 47.30 61.41 52.61 61.38 C 56.77 61.38 58.55 64.79 58.27 64.77 L 57.73 64.77 L 56.65 71.58 Z" fill="#231f20" fill-rule="evenodd" node-id="251" stroke="none" target-height="10.200001" target-width="13.099998" target-x="45.45" target-y="61.38"></path><path d="M 45.45 71.57 C 46.45 65.26 47.30 61.41 52.61 61.38 C 56.77 61.38 58.55 64.79 58.27 64.77 L 57.73 64.77 L 56.65 71.58 Z" fill="none" node-id="253" stroke="#231f20" stroke-linecap="round" stroke-width="0.57" target-height="10.200001" target-width="13.099998" target-x="45.45" target-y="61.38"></path><path d="M 62.65 103.91 C 55.81 103.91 49.07 104.10 42.23 103.91 C 42.12 103.91 45.49 84.97 45.46 84.91 C 45.43 84.85 40.73 84.91 40.73 84.91 C 40.73 84.91 43.25 77.18 45.00 75.20 C 46.75 73.22 49.57 73.27 50.78 75.29 C 50.47 77.91 53.95 77.11 54.07 76.17 C 54.34 74.00 57.07 73.27 58.86 74.53 C 60.43 75.64 61.94 78.60 63.01 80.29 C 64.33 82.39 65.70 84.48 65.91 84.92 L 58.79 84.92 Z" fill="#ffffff" fill-rule="evenodd" node-id="255" stroke="none" target-height="30.879997" target-width="25.180004" target-x="40.73" target-y="73.22"></path><path d="M 62.65 103.91 C 55.81 103.91 49.07 104.10 42.23 103.91 C 42.12 103.91 45.49 84.97 45.46 84.91 C 45.43 84.85 40.73 84.91 40.73 84.91 C 40.73 84.91 43.25 77.18 45.00 75.20 C 46.75 73.22 49.57 73.27 50.78 75.29 C 50.47 77.91 53.95 77.11 54.07 76.17 C 54.34 74.00 57.07 73.27 58.86 74.53 C 60.43 75.64 61.94 78.60 63.01 80.29 C 64.33 82.39 65.70 84.48 65.91 84.92 L 58.79 84.92 Z" fill="none" node-id="257" stroke="#231f20" stroke-linecap="round" stroke-width="0.57" target-height="30.879997" target-width="25.180004" target-x="40.73" target-y="73.22"></path><path d="M 58.78 84.89 L 60.93 95.53 C 66.66 101.45 73.59 99.53 75.66 90.53 C 76.49 86.92 76.49 78.38 76.85 78.15 C 79.09 76.73 80.99 72.66 78.95 71.15 C 78.33 70.69 78.54 71.47 78.52 70.92 C 78.42 68.51 76.45 69.07 76.41 68.77 C 76.09 66.59 74.14 67.09 73.89 68.04 C 73.64 68.99 73.89 71.96 71.78 72.46 C 71.40 72.55 72.27 69.66 70.78 69.28 C 68.85 68.80 69.11 74.49 68.78 76.14 C 68.19 79.68 67.45 85.82 67.30 87.24 L 65.78 84.84 Z" fill="#f9d1e3" fill-rule="evenodd" node-id="259" stroke="none" target-height="34.86" target-width="22.21" target-x="58.78" target-y="66.59"></path><path d="M 58.78 84.89 L 60.93 95.53 C 66.66 101.45 73.59 99.53 75.66 90.53 C 76.49 86.92 76.49 78.38 76.85 78.15 C 79.09 76.73 80.99 72.66 78.95 71.15 C 78.33 70.69 78.54 71.47 78.52 70.92 C 78.42 68.51 76.45 69.07 76.41 68.77 C 76.09 66.59 74.14 67.09 73.89 68.04 C 73.64 68.99 73.89 71.96 71.78 72.46 C 71.40 72.55 72.27 69.66 70.78 69.28 C 68.85 68.80 69.11 74.49 68.78 76.14 C 68.19 79.68 67.45 85.82 67.30 87.24 L 65.78 84.84 Z" fill="none" node-id="261" stroke="#231f20" stroke-linecap="round" stroke-width="0.57" target-height="34.86" target-width="22.21" target-x="58.78" target-y="66.59"></path><path d="M 58.83 85.06 L 58.30 82.81" fill="none" node-id="263" stroke="#231f20" stroke-linecap="round" stroke-width="0.57" target-height="2.25" target-width="0.5300026" target-x="58.3" target-y="82.81"></path><path d="M 43.19 97.92 L 45.84 82.64" fill="none" node-id="265" stroke="#231f20" stroke-linecap="round" stroke-width="0.57" target-height="15.279999" target-width="2.6500015" target-x="43.19" target-y="82.64"></path><path d="M 67.37 87.24 L 68.45 89.01" fill="none" node-id="267" stroke="#231f20" stroke-linecap="round" stroke-width="0.57" target-height="1.7700043" target-width="1.0799942" target-x="67.37" target-y="87.24"></path><path d="M 76.40 69.00 C 76.57 70.11 76.34 71.24 75.77 72.20" fill="none" node-id="269" stroke="#231f20" stroke-linecap="round" stroke-width="0.57" target-height="3.199997" target-width="0.79737854" target-x="75.77" target-y="69"></path><path d="M 78.49 71.13 C 78.61 72.17 78.40 73.22 77.89 74.13" fill="none" node-id="271" stroke="#231f20" stroke-linecap="round" stroke-width="0.57" target-height="3" target-width="0.72389984" target-x="77.89" target-y="71.13"></path><path d="M 50.87 160.34 L 48.28 126.34 C 47.56 125.84 46.89 125.27 46.28 124.63 C 46.03 124.31 45.80 123.98 45.60 123.63" fill="none" node-id="273" stroke="#ffffff" stroke-linecap="round" stroke-width="0.57" target-height="36.71" target-width="5.2700005" target-x="45.6" target-y="123.63"></path><path d="M 19.53 168.90 L 28.17 153.00 L 49.67 159.68 C 47.23 165.44 50.97 168.31 51.81 168.73 C 52.65 169.15 58.03 170.11 59.34 174.16 C 59.51 175.17 59.55 176.20 59.47 177.22 L 46.09 177.22 L 35.21 173.84 L 34.00 170.72 L 32.39 172.90 Z" fill="#ffffff" fill-rule="evenodd" node-id="275" stroke="none" target-height="24.220001" target-width="40.024117" target-x="19.53" target-y="153"></path><path d="M 19.53 168.90 L 28.17 153.00 L 49.67 159.68 C 47.23 165.44 50.97 168.31 51.81 168.73 C 52.65 169.15 58.03 170.11 59.34 174.16 C 59.51 175.17 59.55 176.20 59.47 177.22 L 46.09 177.22 L 35.21 173.84 L 34.00 170.72 L 32.39 172.90 Z" fill="none" node-id="277" stroke="#231f20" stroke-linecap="round" stroke-width="0.57" target-height="24.220001" target-width="40.024117" target-x="19.53" target-y="153"></path><path d="M 59.39 174.21 L 47.14 174.34 L 21.10 166.24" fill="none" node-id="279" stroke="#000000" stroke-linecap="round" stroke-width="0.57" target-height="8.099991" target-width="38.29" target-x="21.1" target-y="166.24"></path><path d="M 33.39 156.76 C 32.82 156.60 32.21 156.67 31.69 156.96 C 31.17 157.25 30.79 157.73 30.63 158.30 C 30.26 159.49 30.90 160.76 32.08 161.16 C 32.65 161.32 33.26 161.25 33.78 160.96 C 34.30 160.67 34.67 160.18 34.83 159.61 C 35.21 158.43 34.57 157.15 33.39 156.76 Z" fill="#ffffff" fill-rule="evenodd" node-id="281" stroke="none" target-height="4.725662" target-width="4.952631" target-x="30.25958" target-y="156.59686"></path><path d="M 33.39 156.76 C 32.82 156.60 32.21 156.67 31.69 156.96 C 31.17 157.25 30.79 157.73 30.63 158.30 C 30.26 159.49 30.90 160.76 32.08 161.16 C 32.65 161.32 33.26 161.25 33.78 160.96 C 34.30 160.67 34.67 160.18 34.83 159.61 C 35.21 158.43 34.57 157.15 33.39 156.76 Z" fill="none" node-id="283" stroke="#ff0000" stroke-linecap="round" stroke-width="0.57" target-height="4.725662" target-width="4.952631" target-x="30.25958" target-y="156.59686"></path><path d="M 52.50 169.00 C 50.50 168.33 47.08 171.84 46.96 174.30" fill="none" node-id="285" stroke="#231f20" stroke-linecap="round" stroke-width="0.57" target-height="5.970001" target-width="5.540001" target-x="46.96" target-y="168.33"></path><path d="M 48.15 171.00 C 44.94 169.00 43.25 163.30 45.15 158.33" fill="none" node-id="287" stroke="#231f20" stroke-linecap="round" stroke-width="0.66" target-height="12.669998" target-width="4.9000015" target-x="43.25" target-y="158.33"></path><path d="M 52.87 177.25 L 51.38 159.41 L 72.80 159.41 C 73.06 160.69 73.23 162.41 77.32 165.28 C 79.14 166.56 82.65 167.63 85.32 169.22 C 88.25 170.82 90.10 173.88 90.16 177.22 L 68.53 177.22 L 65.86 174.58 L 65.68 177.22 Z" fill="#ffffff" fill-rule="evenodd" node-id="289" stroke="none" target-height="17.839996" target-width="38.780003" target-x="51.38" target-y="159.41"></path><path d="M 52.87 177.25 L 51.38 159.41 L 72.80 159.41 C 73.06 160.69 73.23 162.41 77.32 165.28 C 79.14 166.56 82.65 167.63 85.32 169.22 C 88.25 170.82 90.10 173.88 90.16 177.22 L 68.54 177.22 L 65.86 174.58 L 65.68 177.22 Z" fill="none" node-id="291" stroke="#231f20" stroke-linecap="round" stroke-width="0.57" target-height="17.839996" target-width="38.780003" target-x="51.38" target-y="159.41"></path><path d="M 89.61 174.15 L 52.85 174.15" fill="none" node-id="293" stroke="#000000" stroke-linecap="round" stroke-width="0.57" target-height="0" target-width="36.760002" target-x="52.85" target-y="174.15"></path><path d="M 57.91 161.44 C 56.66 161.46 55.65 162.49 55.66 163.74 C 55.65 164.97 56.64 165.98 57.87 166.00 C 59.12 165.98 60.12 164.96 60.13 163.71 C 60.14 162.47 59.15 161.46 57.91 161.44 Z" fill="#ffffff" fill-rule="evenodd" node-id="295" stroke="none" target-height="4.5599976" target-width="4.492241" target-x="55.64888" target-y="161.44"></path><path d="M 57.91 161.44 C 56.66 161.46 55.65 162.49 55.66 163.74 C 55.65 164.97 56.64 165.98 57.87 166.00 C 59.12 165.98 60.12 164.96 60.13 163.71 C 60.14 162.47 59.15 161.46 57.91 161.44 Z" fill="none" node-id="297" stroke="#ff0000" stroke-linecap="round" stroke-width="0.57" target-height="4.5599976" target-width="4.492241" target-x="55.64888" target-y="161.44"></path><path d="M 80.91 167.11 C 78.91 167.11 77.77 173.11 78.38 174.11" fill="none" node-id="299" stroke="#231f20" stroke-linecap="round" stroke-width="0.57" target-height="7" target-width="3.140007" target-x="77.77" target-y="167.11"></path><path d="M 78.73 170.00 C 74.56 169.10 68.53 165.00 67.25 159.43" fill="none" node-id="301" stroke="#231f20" stroke-linecap="round" stroke-width="0.57" target-height="10.570007" target-width="11.480003" target-x="67.25" target-y="159.43"></path><path d="M 40.73 84.83 L 39.40 88.52" fill="none" node-id="303" stroke="#231f20" stroke-linecap="round" stroke-width="0.57" target-height="3.6899948" target-width="1.329998" target-x="39.4" target-y="84.83"></path><path d="M 28.26 70.67 L 26.23 70.32" fill="none" node-id="305" stroke="#231f20" stroke-linecap="round" stroke-width="0.57" target-height="0.34999847" target-width="2.0300007" target-x="26.23" target-y="70.32"></path><path d="M 28.72 67.75 L 25.82 66.20" fill="none" node-id="307" stroke="#231f20" stroke-linecap="round" stroke-width="0.57" target-height="1.550003" target-width="2.8999996" target-x="25.82" target-y="66.2"></path><path d="M 30.44 65.50 L 29.26 63.46" fill="none" node-id="309" stroke="#231f20" stroke-linecap="round" stroke-width="0.57" target-height="2.040001" target-width="1.1800003" target-x="29.26" target-y="63.46"></path></svg>