<svg viewBox="0 0 256 256" version="1.1" xml:space="preserve" style="font-size: 128px;" x="0px" id="图层_1" y="0px" xmlns:xlink="http://www.w3.org/1999/xlink" xmlns="http://www.w3.org/2000/svg" height="128" width="128">
    <style type="text/css">
	.st0{fill:#C0C9D2;}
	.st1{fill:#F8FBFD;}
	.st2{fill:#7C858F;}
	.st3{fill:#D3B1AB;}
	.st4{fill:#EEC8BF;}
	.st5{fill:#2B3244;}
</style>
    <title>商人</title>
    <g transform="matrix(0.25710555,0,0,0.25710555,-3.6508989,-3.6251883)">
        <g id="图层_25">
            <path class="st0" d="M657.2,615.7c91.6,0,165.9,74.3,165.9,165.9V989H574.2l-41.5-207.4l41.5-62.2l41.5,41.5V610.1
		c6.3,3.7,13.5,5.6,20.7,5.6L657.2,615.7z M408.3,610.1v150.8l41.5-41.5l41.5,62.2L449.8,989H200.9V781.6
		c0-91.6,74.3-165.9,165.9-165.9h20.7C394.8,615.7,402,613.8,408.3,610.1L408.3,610.1z"></path>
            <path class="st1" d="M512,657.2L408.3,760.9V610.1c12.8-7.4,20.7-21.1,20.7-35.9L512,657.2z M615.7,610.1v150.8L512,657.2l83-83
		C595,589,602.9,602.7,615.7,610.1z"></path>
            <path class="st2" d="M532.7,781.6L574.2,989H449.8l41.5-207.4H532.7z M574.2,719.4l-41.5,62.2h-41.5l-41.5-62.2l62.2-62.2
		L574.2,719.4z M719.4,242.4v67.8c-6.3-3.7-13.5-5.6-20.7-5.6h-20.7c0,0-41.5,0-41.5-124.4c0,68.9-129.8,124.4-290.4,124.4h-20.7
		c-7.3,0-14.4,1.9-20.7,5.6v-67.8c-0.1-114.5,92.7-207.5,207.2-207.6c114.5-0.1,207.5,92.7,207.6,207.2
		C719.4,242.1,719.4,242.3,719.4,242.4L719.4,242.4z"></path>
            <path class="st3" d="M429.7,510.8c25,14.5,53.4,22.1,82.3,22c28.9,0,57.3-7.6,82.3-22l0.6,1.2v62.2l-83,83l-83-83V512L429.7,510.8z
		"></path>
            <path class="st4" d="M346.1,366.8c0,6.9,0.4,13.7,1.2,20.5l-1.2,0.2h-20.7c-22.9,0-41.5-18.6-41.5-41.5s18.6-41.5,41.5-41.5h20.7
		V366.8z M719.4,310.2c19.8,11.5,26.6,36.9,15.1,56.7c-7.4,12.8-21,20.6-35.8,20.7h-20.7l-1.2-0.2c0.8-6.8,1.3-13.7,1.2-20.5v-62.2
		h20.7C706,304.6,713.1,306.5,719.4,310.2L719.4,310.2z"></path>
            <path class="st4" d="M677.9,304.6v62.2c0.1,44-17.4,86.3-48.5,117.4c-10.4,10.4-22.2,19.3-35.1,26.5c-25,14.4-53.4,22-82.3,22
		c-28.9,0.1-57.3-7.5-82.3-22c-51.8-29.4-83.7-84.4-83.6-143.9v-62.2c160.5,0,290.4-55.6,290.4-124.4
		C636.4,304.6,677.9,304.6,677.9,304.6L677.9,304.6z"></path>
            <path class="st5" d="M823.1,1009.8H200.9c-11.5,0-20.7-9.3-20.7-20.7c0,0,0,0,0,0V781.6c0.1-103,83.6-186.6,186.7-186.7h20.7
		c11.5,0,20.7-9.3,20.7-20.7V512h41.5v62.2c0,34.4-27.9,62.2-62.2,62.2c0,0,0,0,0,0h-20.7c-80.1,0.1-145.1,65-145.2,145.2v186.7
		h580.7V781.6c-0.1-80.1-65-145.1-145.2-145.2h-20.7c-34.4,0-62.2-27.9-62.2-62.2V512h41.5v62.2c0,11.5,9.3,20.7,20.7,20.7h20.7
		c103,0.1,186.5,83.6,186.7,186.7V989C843.9,1000.5,834.6,1009.8,823.1,1009.8C823.1,1009.8,823.1,1009.8,823.1,1009.8z"></path>
            <path class="st5" d="M512,553.5c-103-0.1-186.6-83.6-186.7-186.7v-62.2c0-11.5,9.3-20.7,20.7-20.7c158.9,0,269.6-54.7,269.6-103.7
		c0-11.5,9.3-20.7,20.7-20.7c11.5,0,20.7,9.3,20.7,20.7c0,87,20.7,102.3,23.4,103.9c10.3,1.3,18.1,10.1,18.1,20.6v62.2
		C698.6,469.9,615,553.4,512,553.5L512,553.5z M366.8,325v41.8c0,80.2,65,145.2,145.2,145.2c80.2,0,145.2-65,145.2-145.2v-47.9
		c-13.1-8.3-28-27.2-35.9-68.9C573,293,479.9,321.9,366.8,325L366.8,325z"></path>
            <path class="st5" d="M698.7,408.3h-20.7v-41.5h20.7c11.5,0,20.7-9.3,20.7-20.8c0-11.4-9.3-20.7-20.7-20.7h-20.7v-41.5h20.7
		c34.4,0,62.2,27.9,62.2,62.2C760.9,380.4,733,408.3,698.7,408.3z M346.1,408.3h-20.7c-34.4,0-62.2-27.9-62.1-62.3
		c0-34.3,27.8-62.1,62.1-62.1h20.7v41.5h-20.7c-11.5,0-20.8,9.3-20.8,20.7c0,11.5,9.3,20.8,20.7,20.8c0,0,0,0,0.1,0h20.7V408.3z"></path>
            <path class="st5" d="M740.2,325.3h-41.5v-83c0-103.1-83.6-186.7-186.7-186.7c-103.1,0-186.7,83.6-186.7,186.7v83h-41.5v-83
		c0-126,102.1-228.2,228.2-228.2s228.2,102.1,228.2,228.2l0,0V325.3z M532.7,802.4h-41.5c-6.9,0-13.4-3.5-17.3-9.2l-41.5-62.2
		l34.5-23l35.3,53h19.3l35.3-53l34.5,23l-41.5,62.2C546.1,798.9,539.7,802.4,532.7,802.4L532.7,802.4z M512,677.9
		c-5.5,0-10.8-2.2-14.7-6.1l-83-83l29.3-29.3l68.3,68.3l68.3-68.3l29.3,29.3l-83,83C522.8,675.7,517.5,677.9,512,677.9L512,677.9z"></path>
            <path class="st5" d="M615.7,781.6c-5.5,0-10.8-2.2-14.7-6.1L497.3,671.9l29.3-29.3l68.3,68.3V595h41.5v165.9c0,8.4-5,16-12.8,19.2
		C621.1,781.1,618.4,781.6,615.7,781.6L615.7,781.6z"></path>
            <path class="st5" d="M408.3,781.6c-2.7,0-5.4-0.5-7.9-1.6c-7.7-3.2-12.8-10.8-12.8-19.2V595H429v115.9l68.3-68.3l29.3,29.3
		L423,775.6C419.1,779.4,413.8,781.6,408.3,781.6L408.3,781.6z M574.2,1009.8H449.8c-11.5,0-20.7-9.3-20.7-20.7
		c0-1.4,0.1-2.8,0.4-4.2l41.5-207.4c2-9.7,10.5-16.6,20.3-16.6h41.5c9.9,0,18.4,6.9,20.3,16.6l41.5,207.4
		c2.3,11.2-4.9,22.2-16.2,24.5C577,1009.6,575.6,1009.8,574.2,1009.8z M475.1,968.3h73.8l-33.2-165.9h-7.5L475.1,968.3z
		 M263.1,802.4h124.4v41.5H263.1L263.1,802.4z"></path>
        </g>
    </g>
</svg>